<svg height="25" viewBox="0 0 25 25" width="25" xmlns="http://www.w3.org/2000/svg" xmlns:xlink="http://www.w3.org/1999/xlink"><linearGradient id="a" x1="101.017%" x2="0%" y1="99.97%" y2=".03%"><stop offset="0" stop-color="#df56eb"/><stop offset=".44431" stop-color="#ff59c7"/><stop offset="1" stop-color="#ffbb5f"/></linearGradient><path d="M16.027 23.483c-.303.85-1.109 1.513-2.062 1.513h-2.93c-.953 0-1.759-.663-2.062-1.513zm1.6-4.395v.732a2.2 2.2 0 0 1-2.04 2.192l-.157.006H9.57a2.2 2.2 0 0 1-2.191-2.04l-.006-.158v-.732zm.413-17.077a8.758 8.758 0 0 1 3.25 6.823 8.767 8.767 0 0 1-2.177 5.783 5.899 5.899 0 0 0-1.368 2.74l-.046.266H7.303a5.633 5.633 0 0 0-1.373-2.958c-1.877-2.11-2.612-4.933-2.017-7.744.701-3.305 3.394-6.037 6.7-6.727 2.652-.56 5.362.138 7.427 1.817zm5.413 10.843l.082.071 1.036 1.036a.732.732 0 0 1-.954 1.107l-.082-.071L22.5 13.96a.732.732 0 0 1 .954-1.107zm-20.952.071c.26.26.283.667.07.954l-.07.082-1.036 1.036a.732.732 0 0 1-1.107-.954l.071-.082 1.036-1.036a.732.732 0 0 1 1.036 0zm11.464-9.95h-2.93a.732.732 0 0 0-.726.633l-.006.1v.513c-.162.077-.32.163-.472.257l-.226.147-.447-.258a.734.734 0 0 0-.94.179l-.06.09-1.465 2.537a.733.733 0 0 0 .178.94l.09.06.431.25c-.017.19-.023.366-.017.546l.017.276-.431.25a.733.733 0 0 0-.315.903l.047.097 1.465 2.538a.734.734 0 0 0 .905.314l.095-.046.447-.258c.148.102.301.196.458.282l.24.123v.513c0 .371.275.677.633.726l.1.007h2.929a.732.732 0 0 0 .726-.633l.006-.1v-.513c.162-.078.32-.164.472-.258l.226-.147.447.258a.736.736 0 0 0 .938-.177l.062-.091 1.465-2.538a.733.733 0 0 0-.178-.94l-.09-.06-.431-.25c.017-.19.022-.366.017-.546l-.017-.276.43-.25a.733.733 0 0 0 .316-.903l-.047-.097-1.465-2.537a.734.734 0 0 0-.903-.316l-.097.047-.447.259a5.093 5.093 0 0 0-.458-.283l-.24-.122v-.514a.732.732 0 0 0-.732-.732zm-.733 1.465v.269c0 .31.196.586.487.69.416.147.8.37 1.144.663a.735.735 0 0 0 .738.126l.103-.05.236-.136.732 1.27-.225.129a.733.733 0 0 0-.354.767c.092.495.092.838 0 1.332a.732.732 0 0 0 .27.71l.084.057.225.13-.732 1.269-.236-.136a.732.732 0 0 0-.84.076 3.63 3.63 0 0 1-1.145.663.733.733 0 0 0-.48.589l-.007.102v.269h-1.464v-.27a.733.733 0 0 0-.488-.69 3.63 3.63 0 0 1-1.143-.663.733.733 0 0 0-.738-.126l-.103.05-.236.136-.732-1.27.224-.129a.733.733 0 0 0 .354-.767 3.268 3.268 0 0 1 0-1.332.732.732 0 0 0-.269-.71L8.552 7.4l-.224-.13.732-1.269.236.136a.733.733 0 0 0 .84-.076 3.63 3.63 0 0 1 1.144-.663.733.733 0 0 0 .48-.589l.008-.101v-.27h1.464zM12.5 6.637a2.2 2.2 0 0 0-2.197 2.197 2.2 2.2 0 0 0 2.197 2.197 2.2 2.2 0 0 0 2.197-2.197A2.2 2.2 0 0 0 12.5 6.637zM2.197 8.834a.732.732 0 0 1 .1 1.458l-.1.007H.732A.732.732 0 0 1 .633 8.84l.1-.007h1.464zm22.07 0a.732.732 0 0 1 .1 1.458l-.1.007h-1.464a.732.732 0 0 1-.1-1.458l.1-.007h1.465zM12.5 8.102a.733.733 0 1 1-.001 1.466.733.733 0 0 1 .001-1.466zM1.383 4.065l.082.071L2.5 5.172a.732.732 0 0 1-.954 1.107l-.082-.071L.429 5.172a.732.732 0 0 1 .954-1.107zm23.188.071c.26.26.284.667.07.954l-.07.082-1.036 1.036a.732.732 0 0 1-1.106-.954l.07-.082 1.036-1.036a.732.732 0 0 1 1.036 0z" fill="url(#a)"/></svg>