<svg xmlns="http://www.w3.org/2000/svg" width="23" height="26" viewBox="0 0 23 26"><defs><linearGradient id="a" x1="87.298%" x2="13.446%" y1="100%" y2="0%"><stop offset="0%" stop-color="#DF56EB"/><stop offset="44.431%" stop-color="#FF59C7"/><stop offset="100%" stop-color="#FFBB5F"/></linearGradient></defs><path fill="url(#a)" fill-rule="nonzero" d="M2.232 9.352A10.024 10.024 0 0 1 12.962.026c5.082.356 9.15 4.62 9.288 9.72a9.978 9.978 0 0 1-2.44 6.826v4.514a.995.995 0 0 1-.676.941L7.591 25.962a.664.664 0 0 1-.882-.627V22.92H3.965c-.973 0-1.76-.787-1.76-1.76v-4.812H.892a.865.865 0 0 1-.729-1.335c.378-.584.84-1.414 1.282-2.26.42-.808.76-2.217.76-3.126v-.276zm10.67-6.194h-1.286a.49.49 0 0 0-.484.409l-.218 1.287a4.946 4.946 0 0 0-1.42.595L8.443 4.7a.5.5 0 0 0-.638.054l-.915.914a.5.5 0 0 0-.053.638l.76 1.074a5.4 5.4 0 0 0-.563 1.388l-1.276.202a.486.486 0 0 0-.41.484v1.287c0 .239.17.44.41.483l1.297.218c.128.484.32.947.585 1.383l-.75 1.053a.5.5 0 0 0 .053.638l.458.457.457.457a.5.5 0 0 0 .638.053l1.074-.76a5.4 5.4 0 0 0 1.388.564l.212 1.276a.49.49 0 0 0 .484.409h1.287a.49.49 0 0 0 .484-.41l.207-1.297a5.346 5.346 0 0 0 1.35-.563l1.064.755a.5.5 0 0 0 .638-.053l.457-.458.458-.457a.5.5 0 0 0 .053-.638l-.755-1.058c.26-.436.452-.904.574-1.388l1.287-.218c.24-.042.41-.25.41-.478V9.42a.49.49 0 0 0-.41-.484L17.47 8.72a5.248 5.248 0 0 0-.574-1.388l.755-1.063a.5.5 0 0 0-.053-.638l-.458-.457-.457-.458a.505.505 0 0 0-.633-.042l-1.058.755a5.176 5.176 0 0 0-1.387-.574l-.218-1.287a.486.486 0 0 0-.484-.41zm-.605 4.051a2.829 2.829 0 1 1 0 5.657 2.829 2.829 0 0 1 0-5.657z"/></svg>