<svg xmlns="http://www.w3.org/2000/svg" width="25" height="22" viewBox="0 0 25 22"><defs><linearGradient id="a" x1="101.017%" x2="0%" y1="88.624%" y2="11.376%"><stop offset="0%" stop-color="#DF56EB"/><stop offset="44.431%" stop-color="#FF59C7"/><stop offset="100%" stop-color="#FFBB5F"/></linearGradient></defs><path fill="url(#a)" fill-rule="nonzero" d="M22.52 15.672C20.744 19.454 16.853 22 12.516 22 8.18 22 4.29 19.456 2.512 15.676 5.097 17.698 8.774 19.8 12.516 19.8c3.74 0 7.42-2.104 10.004-4.128zM12.516 3.667c5.408 0 10.93 5.091 12.355 6.875a.732.732 0 0 1 0 .915c-1.426 1.784-6.954 6.876-12.355 6.876-5.409 0-10.932-5.091-12.355-6.875a.732.732 0 0 1 0-.915C1.586 8.76 7.114 3.667 12.516 3.667zm0 .733a.733.733 0 0 0-.727.634l-.007.1v.807a5.115 5.115 0 0 0-4.288 4.103l-.038.223H6.65a.733.733 0 0 0-.1 1.46l.1.006h.807a5.115 5.115 0 0 0 4.104 4.289l.222.037v.808a.733.733 0 0 0 1.46.1l.007-.1v-.808a5.115 5.115 0 0 0 4.289-4.103l.037-.223h.807a.733.733 0 0 0 .1-1.46l-.1-.006h-.807a5.115 5.115 0 0 0-4.104-4.289l-.222-.037v-.808a.733.733 0 0 0-.733-.733zm.733 3.008a3.678 3.678 0 0 1 2.814 2.665l.045.194h-.66a.733.733 0 0 0-.099 1.46l.1.006h.659a3.678 3.678 0 0 1-2.665 2.814l-.194.045v-.659a.733.733 0 0 0-1.46-.1l-.007.1v.66a3.678 3.678 0 0 1-2.814-2.666l-.045-.194h.66a.733.733 0 0 0 .099-1.46l-.1-.006h-.659a3.678 3.678 0 0 1 2.666-2.814l.193-.045v.659a.733.733 0 0 0 1.46.1l.007-.1v-.66zm-.733 2.859a.733.733 0 1 0 0 1.466.733.733 0 0 0 0-1.466zm0-10.267c4.335 0 8.225 2.544 10.003 6.324C19.935 4.302 16.257 2.2 12.516 2.2c-3.74 0-7.42 2.104-10.005 4.128C4.287 2.546 8.178 0 12.516 0z"/></svg>